<?xml version="1.0" encoding="UTF-8" standalone="no"?>
<!DOCTYPE svg PUBLIC "-//W3C//DTD SVG 1.1//EN" "http://www.w3.org/Graphics/SVG/1.1/DTD/svg11.dtd">
<svg width="800px" height="800px">
<polygon fill="#FF0000" points="181.25,118.888923199387
173.257576482714,128.21996270136
165.538209473049,137.778127004046
158.09834999556,147.555428412014
150.944215492182,157.543696098386
144.081784626357,167.734582933142
137.516792286705,178.119572458767
131.254724794412,188.689986007395
125.30081531835,199.436989953514
119.660039501752,210.351603096174
114.337111304097,221.424704164513
109.336479061688,232.647039440346
104.662321770203,244.009230491438
100.318545592339,255.501782008993
96.3087805934549,267.115089742828
92.6363777079512,278.83944852758
89.3044059389151,290.665060393246
86.3156497933749,302.582042753287
83.6726069553058,314.580436663439
81.3774861983317,326.650215144337
79.4322055398674,338.781291560997
77.8383906382441,350.963528052151
76.5973734341572,363.186744002391
75.7101910375726,375.440724550043
75.17758486102,387.71522912366
75,400
75.17758486102,412.28477087634
75.7101910375726,424.559275449957
76.5973734341572,436.813255997609
77.8383906382441,449.036471947849
79.4322055398674,461.218708439003
81.3774861983317,473.349784855663
83.6726069553058,485.41956333656
86.3156497933748,497.417957246712
89.304405938915,509.334939606754
92.6363777079511,521.16055147242
96.3087805934547,532.884910257172
100.318545592339,544.498217991007
104.662321770203,555.990769508562
109.336479061688,567.352960559654
114.337111304097,578.575295835487
119.660039501752,589.648396903826
125.30081531835,600.563010046486
131.254724794412,611.310013992605
137.516792286705,621.880427541233
144.081784626357,632.265417066858
150.944215492182,642.456303901614
158.09834999556,652.444571587986
165.538209473049,662.221872995954
173.257576482714,671.78003729864
181.25,681.111076800613
183.470352894246,683.330684059097
185.951388197681,685.254505043495
188.653978501474,686.852199947646
191.535502342082,688.098572168496
194.550516367202,688.973965671574
197.651472004575,689.464574978404
200.789465331379,689.56266288714
203.915008318303,689.266682492867
206.978809285334,688.581301583212
209.932550260997,687.517329024548
212.729648985627,686.091544299711
215.325993541429,684.326432885534
217.680638023778,682.249831643445
219.756448282591,679.894489815533
221.520687550058,677.297552549438
222.945532719024,674.499975097182
224.008513130015,671.545876926377
224.692864946955,668.48184592987
224.987795532878,665.35620370684
224.888653656263,662.218243502311
224.397002843727,659.117452823237
223.520596722283,656.102732990948
222.273256740005,653.221627938105
220.674654193538,650.519574412482
218.75,648.039185412305
211.697861602394,639.805915263506
204.886655417397,631.372240878783
198.322073525494,622.745210224693
192.009601904867,613.932032854365
185.954515846786,604.940073882522
180.161875547093,595.776847830499
174.636521877422,586.450012346416
169.383072339721,576.967361805723
164.405917207428,567.336820797494
159.709215856556,557.5664375019
155.296893289725,547.6643769644
151.172636856061,537.638914272261
147.339893169711,527.498427639124
143.801865229519,517.251391403387
140.56150974231,506.906368946253
137.621534651984,496.472005535371
134.984396876507,485.95702110004
132.652300254682,475.370202944024
130.62719370441,464.720398402055
128.910769594001,454.016507446179
127.504462327862,443.267475248102
126.409447147786,432.482284703772
125.626639150799,421.669948926433
125.156692524429,410.839503714418
125,400
125.156692524429,389.160496285582
125.626639150799,378.330051073567
126.409447147786,367.517715296227
127.504462327862,356.732524751898
128.910769594001,345.983492553821
130.62719370441,335.279601597945
132.652300254682,324.629797055976
134.984396876507,314.04297889996
137.621534651984,303.527994464629
140.56150974231,293.093631053747
143.801865229519,282.748608596613
147.339893169711,272.501572360876
151.172636856061,262.361085727739
155.296893289725,252.3356230356
159.709215856556,242.4335624981
164.405917207428,232.663179202506
169.383072339721,223.032638194277
174.636521877422,213.549987653584
180.161875547093,204.223152169501
185.954515846786,195.059926117478
192.009601904867,186.067967145634
198.322073525495,177.254789775306
204.886655417397,168.627759121217
211.697861602394,160.194084736494
218.75,151.960814587695
220.674654193538,149.480425587518
222.273256740005,146.778372061895
223.520596722283,143.897267009052
224.397002843727,140.882547176763
224.888653656263,137.781756497689
224.987795532878,134.64379629316
224.692864946955,131.51815407013
224.008513130015,128.454123073623
222.945532719024,125.500024902818
221.520687550058,122.702447450562
219.756448282591,120.105510184467
217.680638023778,117.750168356555
215.325993541429,115.673567114466
212.729648985627,113.908455700289
209.932550260997,112.482670975452
206.978809285334,111.418698416788
203.915008318303,110.733317507133
200.789465331379,110.43733711286
197.651472004575,110.535425021596
194.550516367203,111.026034328425
191.535502342083,111.901427831504
188.653978501474,113.147800052354
185.951388197681,114.745494956505
183.470352894246,116.669315940902" />
<polygon fill="#FF0000" points="318.75,681.111076800613
326.742423517286,671.78003729864
334.46179052695,662.221872995954
341.90165000444,652.444571587986
349.055784507818,642.456303901614
355.918215373643,632.265417066858
362.483207713295,621.880427541233
368.745275205588,611.310013992605
374.69918468165,600.563010046486
380.339960498248,589.648396903826
385.662888695903,578.575295835487
390.663520938312,567.352960559654
395.337678229797,555.990769508562
399.681454407661,544.498217991007
403.691219406545,532.884910257172
407.363622292049,521.16055147242
410.695594061085,509.334939606754
413.684350206625,497.417957246713
416.327393044694,485.419563336561
418.622513801668,473.349784855663
420.567794460133,461.218708439003
422.161609361756,449.036471947849
423.402626565843,436.813255997609
424.289808962427,424.559275449957
424.82241513898,412.28477087634
425,400
424.82241513898,387.71522912366
424.289808962427,375.440724550043
423.402626565843,363.186744002391
422.161609361756,350.963528052151
420.567794460133,338.781291560997
418.622513801668,326.650215144337
416.327393044694,314.580436663439
413.684350206625,302.582042753287
410.695594061085,290.665060393246
407.363622292049,278.83944852758
403.691219406545,267.115089742828
399.681454407661,255.501782008993
395.337678229797,244.009230491437
390.663520938312,232.647039440346
385.662888695903,221.424704164513
380.339960498248,210.351603096174
374.69918468165,199.436989953514
368.745275205588,188.689986007395
362.483207713295,178.119572458767
355.918215373643,167.734582933142
349.055784507818,157.543696098386
341.90165000444,147.555428412014
334.46179052695,137.778127004046
326.742423517286,128.21996270136
318.75,118.888923199387
316.529647105754,116.669315940902
314.048611802319,114.745494956505
311.346021498526,113.147800052354
308.464497657917,111.901427831504
305.449483632798,111.026034328425
302.348527995425,110.535425021596
299.210534668621,110.43733711286
296.084991681697,110.733317507133
293.021190714666,111.418698416788
290.067449739003,112.482670975452
287.270351014373,113.908455700289
284.674006458571,115.673567114466
282.319361976222,117.750168356555
280.243551717409,120.105510184467
278.479312449942,122.702447450562
277.054467280976,125.500024902818
275.991486869985,128.454123073623
275.307135053045,131.51815407013
275.012204467122,134.64379629316
275.111346343737,137.781756497689
275.602997156273,140.882547176763
276.479403277717,143.897267009052
277.726743259995,146.778372061895
279.325345806462,149.480425587518
281.25,151.960814587695
288.302138397606,160.194084736494
295.113344582603,168.627759121217
301.677926474505,177.254789775307
307.990398095133,186.067967145634
314.045484153214,195.059926117478
319.838124452907,204.223152169501
325.363478122578,213.549987653584
330.616927660279,223.032638194277
335.594082792572,232.663179202506
340.290784143444,242.4335624981
344.703106710275,252.3356230356
348.827363143939,262.361085727739
352.660106830289,272.501572360876
356.198134770481,282.748608596613
359.43849025769,293.093631053747
362.378465348016,303.527994464629
365.015603123493,314.04297889996
367.347699745318,324.629797055976
369.37280629559,335.279601597945
371.089230405999,345.983492553821
372.495537672138,356.732524751898
373.590552852214,367.517715296228
374.373360849201,378.330051073567
374.843307475571,389.160496285582
375,400
374.843307475571,410.839503714418
374.373360849201,421.669948926433
373.590552852214,432.482284703772
372.495537672138,443.267475248102
371.089230405999,454.016507446179
369.37280629559,464.720398402055
367.347699745318,475.370202944024
365.015603123493,485.95702110004
362.378465348016,496.472005535371
359.43849025769,506.906368946253
356.198134770481,517.251391403387
352.660106830289,527.498427639124
348.827363143939,537.638914272261
344.703106710275,547.6643769644
340.290784143444,557.566437501901
335.594082792572,567.336820797494
330.616927660279,576.967361805723
325.363478122578,586.450012346416
319.838124452907,595.776847830499
314.045484153214,604.940073882522
307.990398095133,613.932032854366
301.677926474506,622.745210224693
295.113344582603,631.372240878783
288.302138397606,639.805915263506
281.25,648.039185412305
279.325345806462,650.519574412482
277.726743259995,653.221627938105
276.479403277717,656.102732990948
275.602997156273,659.117452823237
275.111346343737,662.218243502311
275.012204467122,665.35620370684
275.307135053045,668.48184592987
275.991486869985,671.545876926377
277.054467280976,674.499975097182
278.479312449942,677.297552549439
280.243551717409,679.894489815533
282.319361976222,682.249831643445
284.674006458571,684.326432885534
287.270351014373,686.091544299711
290.067449739003,687.517329024548
293.021190714666,688.581301583212
296.084991681697,689.266682492867
299.210534668621,689.56266288714
302.348527995425,689.464574978404
305.449483632798,688.973965671575
308.464497657917,688.098572168496
311.346021498526,686.852199947646
314.048611802319,685.254505043495
316.529647105754,683.330684059098" />
<polygon fill="#0000FF" points="281.25,118.888923199387
273.257576482714,128.21996270136
265.538209473049,137.778127004046
258.09834999556,147.555428412014
250.944215492182,157.543696098386
244.081784626357,167.734582933142
237.516792286705,178.119572458767
231.254724794412,188.689986007395
225.30081531835,199.436989953514
219.660039501752,210.351603096174
214.337111304097,221.424704164513
209.336479061688,232.647039440346
204.662321770203,244.009230491438
200.318545592339,255.501782008993
196.308780593455,267.115089742828
192.636377707951,278.83944852758
189.304405938915,290.665060393246
186.315649793375,302.582042753287
183.672606955306,314.580436663439
181.377486198332,326.650215144337
179.432205539867,338.781291560997
177.838390638244,350.963528052151
176.597373434157,363.186744002391
175.710191037573,375.440724550043
175.17758486102,387.71522912366
175,400
175.17758486102,412.28477087634
175.710191037573,424.559275449957
176.597373434157,436.813255997609
177.838390638244,449.036471947849
179.432205539867,461.218708439003
181.377486198332,473.349784855663
183.672606955306,485.41956333656
186.315649793375,497.417957246712
189.304405938915,509.334939606754
192.636377707951,521.16055147242
196.308780593455,532.884910257172
200.318545592339,544.498217991007
204.662321770203,555.990769508562
209.336479061688,567.352960559654
214.337111304097,578.575295835487
219.660039501752,589.648396903826
225.30081531835,600.563010046486
231.254724794412,611.310013992605
237.516792286705,621.880427541233
244.081784626357,632.265417066858
250.944215492182,642.456303901614
258.09834999556,652.444571587986
265.538209473049,662.221872995954
273.257576482714,671.78003729864
281.25,681.111076800613
283.470352894245,683.330684059097
285.951388197681,685.254505043495
288.653978501474,686.852199947646
291.535502342083,688.098572168496
294.550516367202,688.973965671574
297.651472004575,689.464574978404
300.789465331379,689.56266288714
303.915008318303,689.266682492867
306.978809285334,688.581301583212
309.932550260997,687.517329024548
312.729648985627,686.091544299711
315.325993541429,684.326432885534
317.680638023778,682.249831643445
319.756448282591,679.894489815533
321.520687550058,677.297552549438
322.945532719024,674.499975097182
324.008513130015,671.545876926377
324.692864946955,668.48184592987
324.987795532878,665.35620370684
324.888653656263,662.218243502311
324.397002843727,659.117452823237
323.520596722283,656.102732990948
322.273256740005,653.221627938105
320.674654193538,650.519574412482
318.75,648.039185412305
311.697861602394,639.805915263506
304.886655417397,631.372240878783
298.322073525494,622.745210224693
292.009601904867,613.932032854365
285.954515846786,604.940073882522
280.161875547093,595.776847830499
274.636521877422,586.450012346416
269.383072339721,576.967361805723
264.405917207428,567.336820797494
259.709215856556,557.5664375019
255.296893289725,547.6643769644
251.172636856061,537.638914272261
247.339893169711,527.498427639124
243.801865229519,517.251391403387
240.56150974231,506.906368946253
237.621534651984,496.472005535371
234.984396876507,485.95702110004
232.652300254682,475.370202944024
230.62719370441,464.720398402055
228.910769594001,454.016507446179
227.504462327862,443.267475248102
226.409447147786,432.482284703772
225.626639150799,421.669948926433
225.156692524429,410.839503714418
225,400
225.156692524429,389.160496285582
225.626639150799,378.330051073567
226.409447147786,367.517715296227
227.504462327862,356.732524751898
228.910769594001,345.983492553821
230.62719370441,335.279601597945
232.652300254682,324.629797055976
234.984396876507,314.04297889996
237.621534651984,303.527994464629
240.56150974231,293.093631053747
243.801865229519,282.748608596613
247.339893169711,272.501572360876
251.172636856061,262.361085727739
255.296893289725,252.3356230356
259.709215856556,242.4335624981
264.405917207428,232.663179202506
269.383072339721,223.032638194277
274.636521877422,213.549987653584
280.161875547093,204.223152169501
285.954515846786,195.059926117478
292.009601904867,186.067967145634
298.322073525495,177.254789775306
304.886655417397,168.627759121217
311.697861602394,160.194084736494
318.75,151.960814587695
320.674654193538,149.480425587518
322.273256740005,146.778372061895
323.520596722283,143.897267009052
324.397002843727,140.882547176763
324.888653656263,137.781756497689
324.987795532878,134.64379629316
324.692864946955,131.51815407013
324.008513130015,128.454123073623
322.945532719024,125.500024902818
321.520687550058,122.702447450562
319.756448282591,120.105510184467
317.680638023778,117.750168356555
315.325993541429,115.673567114466
312.729648985627,113.908455700289
309.932550260997,112.482670975452
306.978809285334,111.418698416788
303.915008318303,110.733317507133
300.789465331379,110.43733711286
297.651472004575,110.535425021596
294.550516367202,111.026034328425
291.535502342083,111.901427831504
288.653978501474,113.147800052354
285.951388197681,114.745494956505
283.470352894246,116.669315940902" />
<polygon fill="#0000FF" points="418.75,681.111076800613
426.742423517286,671.78003729864
434.46179052695,662.221872995954
441.90165000444,652.444571587986
449.055784507818,642.456303901614
455.918215373643,632.265417066858
462.483207713295,621.880427541233
468.745275205588,611.310013992605
474.69918468165,600.563010046486
480.339960498248,589.648396903826
485.662888695903,578.575295835487
490.663520938312,567.352960559654
495.337678229797,555.990769508562
499.681454407661,544.498217991007
503.691219406545,532.884910257172
507.363622292049,521.16055147242
510.695594061085,509.334939606754
513.684350206625,497.417957246713
516.327393044694,485.419563336561
518.622513801668,473.349784855663
520.567794460133,461.218708439003
522.161609361756,449.036471947849
523.402626565843,436.813255997609
524.289808962427,424.559275449957
524.82241513898,412.28477087634
525,400
524.82241513898,387.71522912366
524.289808962427,375.440724550043
523.402626565843,363.186744002391
522.161609361756,350.963528052151
520.567794460133,338.781291560997
518.622513801668,326.650215144337
516.327393044694,314.580436663439
513.684350206625,302.582042753287
510.695594061085,290.665060393246
507.363622292049,278.83944852758
503.691219406545,267.115089742828
499.681454407661,255.501782008993
495.337678229797,244.009230491437
490.663520938312,232.647039440346
485.662888695903,221.424704164513
480.339960498248,210.351603096174
474.69918468165,199.436989953514
468.745275205588,188.689986007395
462.483207713295,178.119572458767
455.918215373643,167.734582933142
449.055784507818,157.543696098386
441.90165000444,147.555428412014
434.46179052695,137.778127004046
426.742423517286,128.21996270136
418.75,118.888923199387
416.529647105754,116.669315940902
414.048611802319,114.745494956505
411.346021498526,113.147800052354
408.464497657917,111.901427831504
405.449483632798,111.026034328425
402.348527995425,110.535425021596
399.210534668621,110.43733711286
396.084991681697,110.733317507133
393.021190714666,111.418698416788
390.067449739003,112.482670975452
387.270351014373,113.908455700289
384.674006458571,115.673567114466
382.319361976222,117.750168356555
380.243551717409,120.105510184467
378.479312449942,122.702447450562
377.054467280976,125.500024902818
375.991486869985,128.454123073623
375.307135053045,131.51815407013
375.012204467122,134.64379629316
375.111346343737,137.781756497689
375.602997156273,140.882547176763
376.479403277717,143.897267009052
377.726743259995,146.778372061895
379.325345806462,149.480425587518
381.25,151.960814587695
388.302138397606,160.194084736494
395.113344582603,168.627759121217
401.677926474505,177.254789775307
407.990398095133,186.067967145634
414.045484153214,195.059926117478
419.838124452907,204.223152169501
425.363478122578,213.549987653584
430.616927660279,223.032638194277
435.594082792572,232.663179202506
440.290784143444,242.4335624981
444.703106710275,252.3356230356
448.827363143939,262.361085727739
452.660106830289,272.501572360876
456.198134770481,282.748608596613
459.43849025769,293.093631053747
462.378465348016,303.527994464629
465.015603123493,314.04297889996
467.347699745318,324.629797055976
469.37280629559,335.279601597945
471.089230405999,345.983492553821
472.495537672138,356.732524751898
473.590552852214,367.517715296228
474.373360849201,378.330051073567
474.843307475571,389.160496285582
475,400
474.843307475571,410.839503714418
474.373360849201,421.669948926433
473.590552852214,432.482284703772
472.495537672138,443.267475248102
471.089230405999,454.016507446179
469.37280629559,464.720398402055
467.347699745318,475.370202944024
465.015603123493,485.95702110004
462.378465348016,496.472005535371
459.43849025769,506.906368946253
456.198134770481,517.251391403387
452.660106830289,527.498427639124
448.827363143939,537.638914272261
444.703106710275,547.6643769644
440.290784143444,557.566437501901
435.594082792572,567.336820797494
430.616927660279,576.967361805723
425.363478122578,586.450012346416
419.838124452907,595.776847830499
414.045484153214,604.940073882522
407.990398095133,613.932032854366
401.677926474506,622.745210224693
395.113344582603,631.372240878783
388.302138397606,639.805915263506
381.25,648.039185412305
379.325345806462,650.519574412482
377.726743259995,653.221627938105
376.479403277717,656.102732990948
375.602997156273,659.117452823237
375.111346343737,662.218243502311
375.012204467122,665.35620370684
375.307135053045,668.48184592987
375.991486869985,671.545876926377
377.054467280976,674.499975097182
378.479312449942,677.297552549439
380.243551717409,679.894489815533
382.319361976222,682.249831643445
384.674006458571,684.326432885534
387.270351014373,686.091544299711
390.067449739003,687.517329024548
393.021190714666,688.581301583212
396.084991681697,689.266682492867
399.210534668621,689.56266288714
402.348527995425,689.464574978404
405.449483632798,688.973965671575
408.464497657917,688.098572168496
411.346021498526,686.852199947646
414.048611802319,685.254505043495
416.529647105754,683.330684059098" />
<polygon fill="#FFFF00" points="381.25,118.888923199387
373.257576482714,128.21996270136
365.538209473049,137.778127004046
358.09834999556,147.555428412014
350.944215492182,157.543696098386
344.081784626357,167.734582933142
337.516792286705,178.119572458767
331.254724794412,188.689986007395
325.30081531835,199.436989953514
319.660039501752,210.351603096174
314.337111304097,221.424704164513
309.336479061688,232.647039440346
304.662321770203,244.009230491438
300.318545592339,255.501782008993
296.308780593455,267.115089742828
292.636377707951,278.83944852758
289.304405938915,290.665060393246
286.315649793375,302.582042753287
283.672606955306,314.580436663439
281.377486198332,326.650215144337
279.432205539867,338.781291560997
277.838390638244,350.963528052151
276.597373434157,363.186744002391
275.710191037573,375.440724550043
275.17758486102,387.71522912366
275,400
275.17758486102,412.28477087634
275.710191037573,424.559275449957
276.597373434157,436.813255997609
277.838390638244,449.036471947849
279.432205539867,461.218708439003
281.377486198332,473.349784855663
283.672606955306,485.41956333656
286.315649793375,497.417957246712
289.304405938915,509.334939606754
292.636377707951,521.16055147242
296.308780593455,532.884910257172
300.318545592339,544.498217991007
304.662321770203,555.990769508562
309.336479061688,567.352960559654
314.337111304097,578.575295835487
319.660039501752,589.648396903826
325.30081531835,600.563010046486
331.254724794412,611.310013992605
337.516792286705,621.880427541233
344.081784626357,632.265417066858
350.944215492182,642.456303901614
358.09834999556,652.444571587986
365.538209473049,662.221872995954
373.257576482714,671.78003729864
381.25,681.111076800613
383.470352894245,683.330684059097
385.951388197681,685.254505043495
388.653978501474,686.852199947646
391.535502342083,688.098572168496
394.550516367202,688.973965671574
397.651472004575,689.464574978404
400.789465331379,689.56266288714
403.915008318303,689.266682492867
406.978809285334,688.581301583212
409.932550260997,687.517329024548
412.729648985627,686.091544299711
415.325993541429,684.326432885534
417.680638023778,682.249831643445
419.756448282591,679.894489815533
421.520687550058,677.297552549438
422.945532719024,674.499975097182
424.008513130015,671.545876926377
424.692864946955,668.48184592987
424.987795532878,665.35620370684
424.888653656263,662.218243502311
424.397002843727,659.117452823237
423.520596722283,656.102732990948
422.273256740005,653.221627938105
420.674654193538,650.519574412482
418.75,648.039185412305
411.697861602394,639.805915263506
404.886655417397,631.372240878783
398.322073525494,622.745210224693
392.009601904867,613.932032854365
385.954515846786,604.940073882522
380.161875547093,595.776847830499
374.636521877422,586.450012346416
369.383072339721,576.967361805723
364.405917207428,567.336820797494
359.709215856556,557.5664375019
355.296893289725,547.6643769644
351.172636856061,537.638914272261
347.339893169711,527.498427639124
343.801865229519,517.251391403387
340.56150974231,506.906368946253
337.621534651984,496.472005535371
334.984396876507,485.95702110004
332.652300254682,475.370202944024
330.62719370441,464.720398402055
328.910769594001,454.016507446179
327.504462327862,443.267475248102
326.409447147786,432.482284703772
325.626639150799,421.669948926433
325.156692524429,410.839503714418
325,400
325.156692524429,389.160496285582
325.626639150799,378.330051073567
326.409447147786,367.517715296227
327.504462327862,356.732524751898
328.910769594001,345.983492553821
330.62719370441,335.279601597945
332.652300254682,324.629797055976
334.984396876507,314.04297889996
337.621534651984,303.527994464629
340.56150974231,293.093631053747
343.801865229519,282.748608596613
347.339893169711,272.501572360876
351.172636856061,262.361085727739
355.296893289725,252.3356230356
359.709215856556,242.4335624981
364.405917207428,232.663179202506
369.383072339721,223.032638194277
374.636521877422,213.549987653584
380.161875547093,204.223152169501
385.954515846786,195.059926117478
392.009601904867,186.067967145634
398.322073525495,177.254789775306
404.886655417397,168.627759121217
411.697861602394,160.194084736494
418.75,151.960814587695
420.674654193538,149.480425587518
422.273256740005,146.778372061895
423.520596722283,143.897267009052
424.397002843727,140.882547176763
424.888653656263,137.781756497689
424.987795532878,134.64379629316
424.692864946955,131.51815407013
424.008513130015,128.454123073623
422.945532719024,125.500024902818
421.520687550058,122.702447450562
419.756448282591,120.105510184467
417.680638023778,117.750168356555
415.325993541429,115.673567114466
412.729648985627,113.908455700289
409.932550260997,112.482670975452
406.978809285334,111.418698416788
403.915008318303,110.733317507133
400.789465331379,110.43733711286
397.651472004575,110.535425021596
394.550516367202,111.026034328425
391.535502342083,111.901427831504
388.653978501474,113.147800052354
385.951388197681,114.745494956505
383.470352894246,116.669315940902" />
<polygon fill="#FFFF00" points="518.75,681.111076800613
526.742423517286,671.78003729864
534.46179052695,662.221872995954
541.901650004439,652.444571587986
549.055784507818,642.456303901614
555.918215373643,632.265417066858
562.483207713295,621.880427541233
568.745275205588,611.310013992605
574.69918468165,600.563010046486
580.339960498248,589.648396903826
585.662888695903,578.575295835487
590.663520938312,567.352960559654
595.337678229797,555.990769508562
599.681454407661,544.498217991007
603.691219406545,532.884910257172
607.363622292049,521.16055147242
610.695594061085,509.334939606754
613.684350206625,497.417957246713
616.327393044694,485.419563336561
618.622513801668,473.349784855663
620.567794460133,461.218708439003
622.161609361756,449.036471947849
623.402626565843,436.813255997609
624.289808962427,424.559275449957
624.82241513898,412.28477087634
625,400
624.82241513898,387.71522912366
624.289808962427,375.440724550043
623.402626565843,363.186744002391
622.161609361756,350.963528052151
620.567794460133,338.781291560997
618.622513801668,326.650215144337
616.327393044694,314.580436663439
613.684350206625,302.582042753287
610.695594061085,290.665060393246
607.363622292049,278.83944852758
603.691219406545,267.115089742828
599.681454407661,255.501782008993
595.337678229797,244.009230491437
590.663520938312,232.647039440346
585.662888695903,221.424704164513
580.339960498248,210.351603096174
574.69918468165,199.436989953514
568.745275205588,188.689986007395
562.483207713295,178.119572458767
555.918215373643,167.734582933142
549.055784507818,157.543696098386
541.901650004439,147.555428412014
534.46179052695,137.778127004046
526.742423517286,128.21996270136
518.75,118.888923199387
516.529647105754,116.669315940902
514.048611802319,114.745494956505
511.346021498526,113.147800052354
508.464497657917,111.901427831504
505.449483632798,111.026034328425
502.348527995425,110.535425021596
499.210534668621,110.43733711286
496.084991681697,110.733317507133
493.021190714666,111.418698416788
490.067449739003,112.482670975452
487.270351014373,113.908455700289
484.674006458571,115.673567114466
482.319361976222,117.750168356555
480.243551717409,120.105510184467
478.479312449942,122.702447450562
477.054467280976,125.500024902818
475.991486869985,128.454123073623
475.307135053045,131.51815407013
475.012204467122,134.64379629316
475.111346343737,137.781756497689
475.602997156273,140.882547176763
476.479403277717,143.897267009052
477.726743259995,146.778372061895
479.325345806462,149.480425587518
481.25,151.960814587695
488.302138397606,160.194084736494
495.113344582603,168.627759121217
501.677926474505,177.254789775307
507.990398095133,186.067967145634
514.045484153214,195.059926117478
519.838124452907,204.223152169501
525.363478122578,213.549987653584
530.616927660279,223.032638194277
535.594082792572,232.663179202506
540.290784143443,242.4335624981
544.703106710275,252.3356230356
548.827363143939,262.361085727739
552.660106830289,272.501572360876
556.198134770481,282.748608596613
559.43849025769,293.093631053747
562.378465348016,303.527994464629
565.015603123493,314.04297889996
567.347699745318,324.629797055976
569.37280629559,335.279601597945
571.089230405999,345.983492553821
572.495537672138,356.732524751898
573.590552852214,367.517715296228
574.373360849201,378.330051073567
574.843307475571,389.160496285582
575,400
574.843307475571,410.839503714418
574.373360849201,421.669948926433
573.590552852214,432.482284703772
572.495537672138,443.267475248102
571.089230405999,454.016507446179
569.37280629559,464.720398402055
567.347699745318,475.370202944024
565.015603123493,485.95702110004
562.378465348016,496.472005535371
559.43849025769,506.906368946253
556.198134770481,517.251391403387
552.660106830289,527.498427639124
548.827363143939,537.638914272261
544.703106710275,547.6643769644
540.290784143443,557.566437501901
535.594082792572,567.336820797494
530.616927660279,576.967361805723
525.363478122578,586.450012346416
519.838124452907,595.776847830499
514.045484153214,604.940073882522
507.990398095133,613.932032854366
501.677926474506,622.745210224693
495.113344582603,631.372240878783
488.302138397606,639.805915263506
481.25,648.039185412305
479.325345806462,650.519574412482
477.726743259995,653.221627938105
476.479403277717,656.102732990948
475.602997156273,659.117452823237
475.111346343737,662.218243502311
475.012204467122,665.35620370684
475.307135053045,668.48184592987
475.991486869985,671.545876926377
477.054467280976,674.499975097182
478.479312449942,677.297552549439
480.243551717409,679.894489815533
482.319361976222,682.249831643445
484.674006458571,684.326432885534
487.270351014373,686.091544299711
490.067449739003,687.517329024548
493.021190714666,688.581301583212
496.084991681697,689.266682492867
499.210534668621,689.56266288714
502.348527995425,689.464574978404
505.449483632798,688.973965671575
508.464497657917,688.098572168496
511.346021498526,686.852199947646
514.048611802319,685.254505043495
516.529647105754,683.330684059098" />
<polygon fill="#00FF00" points="481.25,118.888923199387
473.257576482714,128.21996270136
465.538209473049,137.778127004046
458.09834999556,147.555428412014
450.944215492182,157.543696098386
444.081784626357,167.734582933142
437.516792286705,178.119572458767
431.254724794412,188.689986007395
425.30081531835,199.436989953514
419.660039501752,210.351603096174
414.337111304097,221.424704164513
409.336479061688,232.647039440346
404.662321770203,244.009230491438
400.318545592339,255.501782008993
396.308780593455,267.115089742828
392.636377707951,278.83944852758
389.304405938915,290.665060393246
386.315649793375,302.582042753287
383.672606955306,314.580436663439
381.377486198332,326.650215144337
379.432205539867,338.781291560997
377.838390638244,350.963528052151
376.597373434157,363.186744002391
375.710191037573,375.440724550043
375.17758486102,387.71522912366
375,400
375.17758486102,412.28477087634
375.710191037573,424.559275449957
376.597373434157,436.813255997609
377.838390638244,449.036471947849
379.432205539867,461.218708439003
381.377486198332,473.349784855663
383.672606955306,485.41956333656
386.315649793375,497.417957246712
389.304405938915,509.334939606754
392.636377707951,521.16055147242
396.308780593455,532.884910257172
400.318545592339,544.498217991007
404.662321770203,555.990769508562
409.336479061688,567.352960559654
414.337111304097,578.575295835487
419.660039501752,589.648396903826
425.30081531835,600.563010046486
431.254724794412,611.310013992605
437.516792286705,621.880427541233
444.081784626357,632.265417066858
450.944215492182,642.456303901614
458.09834999556,652.444571587986
465.538209473049,662.221872995954
473.257576482714,671.78003729864
481.25,681.111076800613
483.470352894245,683.330684059097
485.951388197681,685.254505043495
488.653978501474,686.852199947646
491.535502342083,688.098572168496
494.550516367202,688.973965671574
497.651472004575,689.464574978404
500.789465331379,689.56266288714
503.915008318303,689.266682492867
506.978809285334,688.581301583212
509.932550260997,687.517329024548
512.729648985627,686.091544299711
515.325993541429,684.326432885534
517.680638023778,682.249831643445
519.756448282591,679.894489815533
521.520687550058,677.297552549438
522.945532719024,674.499975097182
524.008513130015,671.545876926377
524.692864946955,668.48184592987
524.987795532878,665.35620370684
524.888653656263,662.218243502311
524.397002843727,659.117452823237
523.520596722283,656.102732990948
522.273256740005,653.221627938105
520.674654193538,650.519574412482
518.75,648.039185412305
511.697861602394,639.805915263506
504.886655417397,631.372240878783
498.322073525494,622.745210224693
492.009601904867,613.932032854365
485.954515846786,604.940073882522
480.161875547093,595.776847830499
474.636521877422,586.450012346416
469.383072339721,576.967361805723
464.405917207428,567.336820797494
459.709215856556,557.5664375019
455.296893289725,547.6643769644
451.172636856061,537.638914272261
447.339893169711,527.498427639124
443.801865229519,517.251391403387
440.56150974231,506.906368946253
437.621534651984,496.472005535371
434.984396876507,485.95702110004
432.652300254682,475.370202944024
430.62719370441,464.720398402055
428.910769594001,454.016507446179
427.504462327862,443.267475248102
426.409447147786,432.482284703772
425.626639150799,421.669948926433
425.156692524429,410.839503714418
425,400
425.156692524429,389.160496285582
425.626639150799,378.330051073567
426.409447147786,367.517715296227
427.504462327862,356.732524751898
428.910769594001,345.983492553821
430.62719370441,335.279601597945
432.652300254682,324.629797055976
434.984396876507,314.04297889996
437.621534651984,303.527994464629
440.56150974231,293.093631053747
443.801865229519,282.748608596613
447.339893169711,272.501572360876
451.172636856061,262.361085727739
455.296893289725,252.3356230356
459.709215856556,242.4335624981
464.405917207428,232.663179202506
469.383072339721,223.032638194277
474.636521877422,213.549987653584
480.161875547093,204.223152169501
485.954515846786,195.059926117478
492.009601904867,186.067967145634
498.322073525495,177.254789775306
504.886655417397,168.627759121217
511.697861602394,160.194084736494
518.75,151.960814587695
520.674654193538,149.480425587518
522.273256740005,146.778372061895
523.520596722283,143.897267009052
524.397002843727,140.882547176763
524.888653656263,137.781756497689
524.987795532878,134.64379629316
524.692864946955,131.51815407013
524.008513130015,128.454123073623
522.945532719024,125.500024902818
521.520687550058,122.702447450562
519.756448282591,120.105510184467
517.680638023778,117.750168356555
515.325993541429,115.673567114466
512.729648985627,113.908455700289
509.932550260997,112.482670975452
506.978809285334,111.418698416788
503.915008318303,110.733317507133
500.789465331379,110.43733711286
497.651472004575,110.535425021596
494.550516367202,111.026034328425
491.535502342083,111.901427831504
488.653978501474,113.147800052354
485.951388197681,114.745494956505
483.470352894246,116.669315940902" />
<polygon fill="#00FF00" points="618.75,681.111076800613
626.742423517286,671.78003729864
634.46179052695,662.221872995954
641.901650004439,652.444571587986
649.055784507818,642.456303901614
655.918215373643,632.265417066858
662.483207713295,621.880427541233
668.745275205588,611.310013992605
674.69918468165,600.563010046486
680.339960498248,589.648396903826
685.662888695903,578.575295835487
690.663520938312,567.352960559654
695.337678229797,555.990769508562
699.681454407661,544.498217991007
703.691219406545,532.884910257172
707.363622292049,521.16055147242
710.695594061085,509.334939606754
713.684350206625,497.417957246713
716.327393044694,485.419563336561
718.622513801668,473.349784855663
720.567794460133,461.218708439003
722.161609361756,449.036471947849
723.402626565843,436.813255997609
724.289808962427,424.559275449957
724.82241513898,412.28477087634
725,400
724.82241513898,387.71522912366
724.289808962427,375.440724550043
723.402626565843,363.186744002391
722.161609361756,350.963528052151
720.567794460133,338.781291560997
718.622513801668,326.650215144337
716.327393044694,314.580436663439
713.684350206625,302.582042753287
710.695594061085,290.665060393246
707.363622292049,278.83944852758
703.691219406545,267.115089742828
699.681454407661,255.501782008993
695.337678229797,244.009230491437
690.663520938312,232.647039440346
685.662888695903,221.424704164513
680.339960498248,210.351603096174
674.69918468165,199.436989953514
668.745275205588,188.689986007395
662.483207713295,178.119572458767
655.918215373643,167.734582933142
649.055784507818,157.543696098386
641.901650004439,147.555428412014
634.46179052695,137.778127004046
626.742423517286,128.21996270136
618.75,118.888923199387
616.529647105754,116.669315940902
614.048611802319,114.745494956505
611.346021498526,113.147800052354
608.464497657917,111.901427831504
605.449483632798,111.026034328425
602.348527995425,110.535425021596
599.210534668621,110.43733711286
596.084991681697,110.733317507133
593.021190714666,111.418698416788
590.067449739003,112.482670975452
587.270351014373,113.908455700289
584.674006458571,115.673567114466
582.319361976222,117.750168356555
580.243551717409,120.105510184467
578.479312449942,122.702447450562
577.054467280976,125.500024902818
575.991486869985,128.454123073623
575.307135053045,131.51815407013
575.012204467122,134.64379629316
575.111346343737,137.781756497689
575.602997156273,140.882547176763
576.479403277717,143.897267009052
577.726743259995,146.778372061895
579.325345806462,149.480425587518
581.25,151.960814587695
588.302138397606,160.194084736494
595.113344582603,168.627759121217
601.677926474506,177.254789775307
607.990398095133,186.067967145634
614.045484153214,195.059926117478
619.838124452907,204.223152169501
625.363478122578,213.549987653584
630.616927660279,223.032638194277
635.594082792572,232.663179202506
640.290784143443,242.4335624981
644.703106710275,252.3356230356
648.827363143939,262.361085727739
652.660106830289,272.501572360876
656.198134770481,282.748608596613
659.43849025769,293.093631053747
662.378465348016,303.527994464629
665.015603123493,314.04297889996
667.347699745318,324.629797055976
669.37280629559,335.279601597945
671.089230405999,345.983492553821
672.495537672138,356.732524751898
673.590552852214,367.517715296228
674.373360849201,378.330051073567
674.843307475571,389.160496285582
675,400
674.843307475571,410.839503714418
674.373360849201,421.669948926433
673.590552852214,432.482284703772
672.495537672138,443.267475248102
671.089230405999,454.016507446179
669.37280629559,464.720398402055
667.347699745318,475.370202944024
665.015603123493,485.95702110004
662.378465348016,496.472005535371
659.43849025769,506.906368946253
656.198134770481,517.251391403387
652.660106830289,527.498427639124
648.827363143939,537.638914272261
644.703106710275,547.6643769644
640.290784143443,557.566437501901
635.594082792572,567.336820797494
630.616927660279,576.967361805723
625.363478122578,586.450012346416
619.838124452907,595.776847830499
614.045484153214,604.940073882522
607.990398095133,613.932032854366
601.677926474506,622.745210224693
595.113344582603,631.372240878783
588.302138397606,639.805915263506
581.25,648.039185412305
579.325345806462,650.519574412482
577.726743259995,653.221627938105
576.479403277717,656.102732990948
575.602997156273,659.117452823237
575.111346343737,662.218243502311
575.012204467122,665.35620370684
575.307135053045,668.48184592987
575.991486869985,671.545876926377
577.054467280976,674.499975097182
578.479312449942,677.297552549439
580.243551717409,679.894489815533
582.319361976222,682.249831643445
584.674006458571,684.326432885534
587.270351014373,686.091544299711
590.067449739003,687.517329024548
593.021190714666,688.581301583212
596.084991681697,689.266682492867
599.210534668621,689.56266288714
602.348527995425,689.464574978404
605.449483632798,688.973965671575
608.464497657917,688.098572168496
611.346021498526,686.852199947646
614.048611802319,685.254505043495
616.529647105754,683.330684059098" />
</svg>
